<?xml version="1.0" encoding="utf-8"?>
<!-- Generator: Adobe Illustrator 16.0.3, SVG Export Plug-In . SVG Version: 6.00 Build 0)  -->
<!DOCTYPE svg PUBLIC "-//W3C//DTD SVG 1.1//EN" "http://www.w3.org/Graphics/SVG/1.1/DTD/svg11.dtd">
<svg version="1.1" id="Capa_1" xmlns="http://www.w3.org/2000/svg" xmlns:xlink="http://www.w3.org/1999/xlink" x="0px" y="0px"
	 width="16px" height="35px" viewBox="17.666 -6.646 16 35" enable-background="new 17.666 -6.646 16 35" xml:space="preserve">
<g>
	<path fill="#4EB96E" d="M25.182-2.65c0.181,0.24,0.482,0.238,0.664,0c0.299-0.364,0.179-0.784,0.179-1.266
		c0-0.602,0.059-1.205,0.179-1.807c0.12-0.48-0.604-0.661-0.784-0.238c-0.181,0.48-0.3,1.024-0.358,1.565
		C25.001-3.794,24.822-3.131,25.182-2.65z"/>
	<path fill="#4EB96E" d="M25.125-0.12c0.121,0.36,0.183,0.661,0.242,1.022c0,0.181-0.059,0.363,0,0.542
		c0.062,0.181,0.062,0.301,0.181,0.482c0.121,0.241,0.544,0.241,0.664-0.001c0.179-0.423,0.179-0.724,0.058-1.144
		c-0.12-0.421-0.181-0.784-0.423-1.204C25.607-0.784,25.005-0.542,25.125-0.12z"/>
	<path fill="#4EB96E" d="M25.558,7.287c0.121,0.179,0.422,0.179,0.602,0C26.4,6.985,26.34,6.744,26.34,6.383
		c0-0.363-0.062-0.663-0.062-1.024c-0.062-0.482-0.725-0.48-0.725,0c0,0.301-0.059,0.602-0.058,0.903
		C25.375,6.623,25.255,6.925,25.558,7.287z"/>
	<path fill="#4EB96E" d="M25.501,9.996c0.241,0.662,0.121,1.324,0.304,1.985c0.121,0.362,0.662,0.362,0.782,0
		c0.239-0.723-0.003-1.566-0.425-2.228C25.981,9.395,25.379,9.634,25.501,9.996z"/>
	<path fill="#4EB96E" d="M25.933,17.703c0.121,0.123,0.362,0.121,0.481,0c0.359-0.362,0.24-0.842,0.239-1.325
		c0-0.423-0.001-0.903-0.062-1.326c-0.059-0.359-0.661-0.359-0.722,0.003c-0.059,0.421-0.059,0.781-0.059,1.204
		C25.69,16.741,25.57,17.283,25.933,17.703z"/>
	<path fill="#4EB96E" d="M26.539,22.884c0.364-0.002,0.603-0.362,0.482-0.663c-0.121-0.482-0.122-1.085-0.184-1.567
		c-0.061-0.301-0.602-0.301-0.663,0.003c-0.059,0.541,0.002,1.082-0.178,1.564C25.938,22.521,26.18,22.884,26.539,22.884z"/>
	<path fill="#4EB96E" d="M20.817,23.131c1.388,1.503,2.896,3.007,4.765,3.969c0.241,0.121,0.543,0.12,0.724-0.122
		c1.263-1.506,2.223-3.192,3.546-4.642c0.481-0.482-0.301-1.205-0.725-0.723c-1.203,1.327-2.104,2.894-3.307,4.221
		c-1.567-0.962-2.653-2.345-4.04-3.608C21.119,21.625,20.277,22.528,20.817,23.131z"/>
</g>
</svg>
