<?xml version="1.0" encoding="utf-8"?>
<!-- Generator: Adobe Illustrator 16.0.3, SVG Export Plug-In . SVG Version: 6.00 Build 0)  -->
<!DOCTYPE svg PUBLIC "-//W3C//DTD SVG 1.1//EN" "http://www.w3.org/Graphics/SVG/1.1/DTD/svg11.dtd">
<svg version="1.1" id="Capa_1" xmlns="http://www.w3.org/2000/svg" xmlns:xlink="http://www.w3.org/1999/xlink" x="0px" y="0px"
	 width="50px" height="18.375px" viewBox="0 0 50 18.375" enable-background="new 0 0 50 18.375" xml:space="preserve">
<g>
	<path fill="#FEB843" d="M29.682,9.711c0.45-0.05,0.9-0.148,1.301-0.298c0.352-0.149,0.201-0.75-0.197-0.65
		c-0.5,0.101-1,0.148-1.5,0.148c-0.4,0-0.75-0.101-1.053,0.149c-0.197,0.149-0.197,0.399,0,0.549
		C28.631,9.908,29.182,9.76,29.682,9.711z"/>
	<path fill="#FEB843" d="M26.383,9.056c-0.35-0.2-0.65-0.251-1-0.351c-0.35-0.102-0.599-0.102-0.949,0.048
		c-0.201,0.101-0.201,0.45-0.002,0.551c0.15,0.099,0.25,0.101,0.4,0.15s0.301,0,0.451,0c0.299,0.05,0.549,0.101,0.849,0.2
		C26.48,9.756,26.684,9.256,26.383,9.056z"/>
	<path fill="#FEB843" d="M20.832,9.349c0.251,0.001,0.5-0.049,0.75-0.048c0.4,0,0.4-0.55,0.001-0.602
		c-0.3,0-0.549-0.049-0.851-0.051c-0.299,0-0.5-0.051-0.75,0.149c-0.148,0.149-0.149,0.399,0,0.5
		C20.283,9.549,20.533,9.449,20.832,9.349z"/>
	<path fill="#FEB843" d="M17.934,8.796c-0.55-0.351-1.25-0.552-1.851-0.353c-0.3,0.1-0.301,0.549,0,0.649
		c0.55,0.151,1.101,0.052,1.649,0.252C18.033,9.445,18.232,8.945,17.934,8.796z"/>
	<path fill="#FEB843" d="M12.532,9.089c0.351,0,0.65,0,1-0.049c0.301-0.05,0.301-0.55,0.001-0.601c-0.35-0.05-0.75-0.051-1.1-0.051
		c-0.4-0.001-0.8-0.101-1.1,0.199c-0.101,0.1-0.102,0.3-0.001,0.398C11.683,9.287,12.133,9.188,12.532,9.089z"/>
	<path fill="#FEB843" d="M7.583,8.932c0.4-0.15,0.85-0.099,1.3-0.148c0.251-0.051,0.251-0.5,0.001-0.551
		c-0.399-0.05-0.899-0.051-1.3-0.151c-0.25-0.101-0.55,0.1-0.551,0.399C7.033,8.781,7.333,8.982,7.583,8.932z"/>
	<path fill="#FEB843" d="M7.578,12.432c-1.049-1.149-2.197-2.053-2.995-3.354c1.101-0.999,2.402-1.747,3.504-2.745
		c0.4-0.351-0.199-1-0.6-0.601C6.285,6.83,4.884,7.628,3.633,8.675c-0.2,0.148-0.201,0.4-0.102,0.6
		c0.799,1.551,2.047,2.804,3.295,3.956C7.327,13.682,8.078,12.982,7.578,12.432z"/>
</g>
</svg>
