<?xml version="1.0" encoding="utf-8"?>
<!-- Generator: Adobe Illustrator 16.0.3, SVG Export Plug-In . SVG Version: 6.00 Build 0)  -->
<!DOCTYPE svg PUBLIC "-//W3C//DTD SVG 1.1//EN" "http://www.w3.org/Graphics/SVG/1.1/DTD/svg11.dtd">
<svg version="1.1" id="Capa_1" xmlns="http://www.w3.org/2000/svg" xmlns:xlink="http://www.w3.org/1999/xlink" x="0px" y="0px"
	 width="50px" height="18.375px" viewBox="0 0 50 18.375" enable-background="new 0 0 50 18.375" xml:space="preserve">
<g>
	<path fill="#FEB843" d="M15.415,10.608c0.199-0.15,0.198-0.4,0-0.551c-0.302-0.248-0.651-0.148-1.051-0.148
		c-0.5,0-1-0.049-1.5-0.148c-0.399-0.1-0.549,0.501-0.198,0.65c0.399,0.15,0.85,0.249,1.3,0.298
		C14.465,10.759,15.015,10.907,15.415,10.608z"/>
	<path fill="#FEB843" d="M17.515,10.655c0.299-0.101,0.549-0.151,0.849-0.201c0.15,0,0.301,0.049,0.45,0
		c0.15-0.051,0.25-0.051,0.4-0.15c0.2-0.101,0.2-0.451-0.001-0.551c-0.351-0.148-0.601-0.148-0.95-0.048
		c-0.349,0.1-0.65,0.149-0.999,0.351C16.964,10.255,17.165,10.755,17.515,10.655z"/>
	<path fill="#FEB843" d="M23.664,10.297c0.149-0.101,0.149-0.351,0-0.5c-0.25-0.2-0.45-0.149-0.75-0.149
		c-0.301,0-0.55,0.051-0.85,0.051c-0.4,0.052-0.399,0.602,0,0.602c0.25,0,0.5,0.049,0.75,0.048
		C23.113,10.448,23.364,10.548,23.664,10.297z"/>
	<path fill="#FEB843" d="M25.914,10.344c0.55-0.2,1.1-0.101,1.648-0.252c0.301-0.101,0.301-0.55,0-0.649
		c-0.601-0.199-1.301,0.002-1.85,0.353C25.414,9.944,25.613,10.444,25.914,10.344z"/>
	<path fill="#FEB843" d="M32.312,9.985c0.102-0.101,0.101-0.301,0-0.399c-0.301-0.299-0.699-0.2-1.101-0.199
		c-0.351,0-0.75,0.001-1.101,0.052c-0.299,0.049-0.299,0.549,0.002,0.6c0.35,0.049,0.648,0.049,1,0.049
		C31.514,10.187,31.964,10.286,32.312,9.985z"/>
	<path fill="#FEB843" d="M36.613,9.481c-0.002-0.302-0.301-0.5-0.551-0.4c-0.4,0.101-0.9,0.102-1.301,0.152
		c-0.25,0.051-0.25,0.5,0.002,0.551c0.449,0.049,0.898-0.002,1.299,0.147C36.312,9.981,36.613,9.78,36.613,9.481z"/>
	<path fill="#FEB843" d="M36.818,14.231c1.248-1.152,2.496-2.404,3.295-3.955c0.101-0.2,0.1-0.451-0.102-0.601
		c-1.25-1.049-2.65-1.846-3.854-2.944c-0.4-0.399-1,0.25-0.6,0.602c1.102,0.999,2.402,1.747,3.504,2.745
		c-0.799,1.301-1.946,2.202-2.996,3.354C35.568,13.981,36.318,14.68,36.818,14.231z"/>
</g>
</svg>
