<?xml version="1.0" encoding="utf-8"?>
<!-- Generator: Adobe Illustrator 16.0.3, SVG Export Plug-In . SVG Version: 6.00 Build 0)  -->
<!DOCTYPE svg PUBLIC "-//W3C//DTD SVG 1.1//EN" "http://www.w3.org/Graphics/SVG/1.1/DTD/svg11.dtd">
<svg version="1.1" id="Layer_1" xmlns="http://www.w3.org/2000/svg" xmlns:xlink="http://www.w3.org/1999/xlink" x="0px" y="0px"
	 width="72px" height="72px" viewBox="0 0 72 72" enable-background="new 0 0 72 72" xml:space="preserve">
<g>
	<g>
		<path fill="#E2E2E2" d="M28.131,52.964c-13.509,0-24.5-10.989-24.5-24.499s10.991-24.5,24.5-24.5c13.51,0,24.5,10.99,24.5,24.5
			C52.632,41.975,41.643,52.964,28.131,52.964z M28.131,7.965c-11.304,0-20.5,9.196-20.5,20.5c0,11.305,9.196,20.499,20.5,20.499
			c11.303,0,20.5-9.194,20.5-20.499C48.631,17.161,39.436,7.965,28.131,7.965z"/>
	</g>
	<g>
		<path fill="#E2E2E2" d="M13.648,20.881c-0.174,0-0.35-0.045-0.51-0.141c-0.475-0.281-0.631-0.896-0.349-1.37
			c3.201-5.39,9.08-8.738,15.342-8.738c0.553,0,1,0.447,1,1c0,0.553-0.447,1-1,1c-5.56,0-10.779,2.974-13.622,7.76
			C14.322,20.707,13.99,20.881,13.648,20.881z"/>
	</g>
	<g>
		<path fill="#E2E2E2" d="M11.298,28.879c-0.552,0-1-0.447-1-1c0-1.42,0.169-2.211,0.468-3.487c0.126-0.538,0.664-0.87,1.201-0.746
			c0.538,0.126,0.872,0.663,0.746,1.201c-0.28,1.198-0.415,1.827-0.415,3.032C12.298,28.432,11.851,28.879,11.298,28.879z"/>
	</g>
	<g>
		<path fill="#E2E2E2" d="M62.37,68.035c-1.604,0-3.108-0.623-4.244-1.756L41.984,50.136c-1.252-1.252-1.664-2.799-1.161-4.356
			c0.409-1.269,1.37-2.338,2.161-3.127c1.173-1.172,2.613-2.371,4.423-2.371c0.771,0,1.93,0.238,3.063,1.371l16.143,16.141
			c1.133,1.135,1.756,2.641,1.756,4.244c0,1.602-0.623,3.109-1.756,4.242C65.479,67.412,63.973,68.035,62.37,68.035z M44.613,47.076
			c0.007,0,0.06,0.094,0.199,0.232l16.142,16.143c0.756,0.754,2.073,0.754,2.83,0c0.377-0.379,0.584-0.881,0.584-1.414
			c0-0.535-0.207-1.037-0.586-1.416L47.643,44.48c-0.144-0.144-0.236-0.195-0.263-0.203c-0.014,0.008-0.426,0.061-1.565,1.203
			C44.671,46.621,44.616,47.033,44.613,47.076L44.613,47.076z"/>
	</g>
</g>
</svg>
