<?xml version="1.0" encoding="utf-8"?>
<!-- Generator: Adobe Illustrator 16.0.3, SVG Export Plug-In . SVG Version: 6.00 Build 0)  -->
<!DOCTYPE svg PUBLIC "-//W3C//DTD SVG 1.1//EN" "http://www.w3.org/Graphics/SVG/1.1/DTD/svg11.dtd">
<svg version="1.1" xmlns="http://www.w3.org/2000/svg" xmlns:xlink="http://www.w3.org/1999/xlink" x="0px" y="0px" width="117px"
	 height="70.393px" viewBox="0 0 117 70.393" enable-background="new 0 0 117 70.393" xml:space="preserve">
<g id="Layer_1">
	<radialGradient id="SVGID_1_" cx="-509.8335" cy="-266.1084" r="230.4205" gradientUnits="userSpaceOnUse">
		<stop  offset="0" style="stop-color:#FFFFFF"/>
		<stop  offset="0.31" style="stop-color:#FFFFFF"/>
		<stop  offset="1" style="stop-color:#F1F2F2"/>
	</radialGradient>
	
		<rect x="-736.807" y="-415.928" fill-rule="evenodd" clip-rule="evenodd" fill="url(#SVGID_1_)" width="453.947" height="299.639"/>
</g>
<g id="Layer_2">
</g>
<g id="Layer_3">
	<path fill="#4FBA6F" d="M50.668,26.376c4.545,2.64,8.717,0.831,12.604-0.855c4.765-2.065,9.17-3.977,13.821,0.681
		c4.341,4.345,6.132,9.605,6.132,15.016c0,6.211-2.382,12.604-5.966,17.989c-5.563,8.359-7.311,7.729-11.744,6.133
		c-1.324-0.478-2.948-1.062-5.15-1.401c-1.777-0.272-3.229,0.482-4.715,1.255c-2.185,1.136-4.43,2.303-7.955,1.385
		c-1.687-0.439-3.26-1.296-4.696-2.475c-3.585-2.941-6.344-7.943-7.872-13.422c-1.518-5.441-1.836-11.402-0.558-16.309
		c0.624-2.396,1.629-4.552,3.062-6.299c1.862-2.27,5.333-5.357,10.254-6.56c2.654-0.647,5.717-0.749,9.156,0.119
		c0.21,0.054,0.416-0.002,0.572-0.153c0.155-0.151,0.216-0.355,0.17-0.566c-0.708-3.193-2.254-5.961-4.277-8.285
		c-2.535-2.914-5.81-5.139-9.144-6.653c-0.211-0.096-0.442-0.068-0.625,0.075c-0.183,0.143-0.266,0.36-0.223,0.589
		c0.457,2.464,1.468,4.881,3.035,6.768c1.679,2.02,4.019,3.426,7.023,3.586c0.846,0.044,0.969,2.695-0.06,2.647
		c-3.849-0.178-6.845-1.967-8.989-4.548c-2.627-3.163-3.939-7.522-3.939-11.494V2.609c0-0.201,0.089-0.375,0.252-0.493
		c0.164-0.117,0.356-0.146,0.547-0.083l0.938,0.313c4.67,1.556,9.594,4.422,13.181,8.544c2.985,3.43,5.055,7.726,5.318,12.861
		l0.057,1.109c0.011,0.212-0.079,0.4-0.251,0.524c-0.173,0.124-0.379,0.149-0.578,0.071l-1.032-0.408
		c-4.087-1.613-7.601-1.681-10.51-0.971c-4.228,1.032-7.225,3.705-8.837,5.671c-1.178,1.436-2.015,3.247-2.545,5.284
		c-1.16,4.451-0.854,9.916,0.548,14.944c1.392,4.99,3.849,9.5,7.003,12.088c1.146,0.939,2.381,1.618,3.683,1.957
		c2.536,0.661,4.329-0.271,6.072-1.178c1.875-0.975,3.706-1.926,6.33-1.523c2.418,0.372,4.196,1.013,5.647,1.536
		c3.038,1.094,4.235,1.526,8.651-5.109c3.317-4.983,5.521-10.864,5.521-16.531c0-4.749-1.564-9.358-5.356-13.154
		c-3.38-3.386-6.996-1.817-10.905-0.122c-4.51,1.957-9.352,4.056-15.041,0.68C48.394,28.097,49.935,25.95,50.668,26.376z"/>
</g>
</svg>
