<?xml version="1.0" encoding="utf-8"?>
<!-- Generator: Adobe Illustrator 16.0.3, SVG Export Plug-In . SVG Version: 6.00 Build 0)  -->
<!DOCTYPE svg PUBLIC "-//W3C//DTD SVG 1.1//EN" "http://www.w3.org/Graphics/SVG/1.1/DTD/svg11.dtd">
<svg version="1.1" id="Layer_1" xmlns="http://www.w3.org/2000/svg" xmlns:xlink="http://www.w3.org/1999/xlink" x="0px" y="0px"
	 width="72px" height="72px" viewBox="0 0 72 72" enable-background="new 0 0 72 72" xml:space="preserve">
<g>
	<g>
		<path fill="#373A4A" d="M21.41,46.998c-0.479,0-0.959-0.191-1.389-0.555l-6.829-5.564c-0.708-0.6-1.045-1.488-0.893-2.334
			c0.133-0.742,0.642-1.34,1.36-1.6l8.549-3.085c0.837-0.301,1.765-0.039,2.346,0.656c0.479,0.572,0.685,1.361,0.551,2.111
			l-1.773,8.516C23.13,46.26,22.375,46.998,21.41,46.998z M22.929,35.731l-8.59,3.095c-0.063,0.021-0.065,0.037-0.071,0.072
			c-0.021,0.117,0.041,0.305,0.201,0.438l6.828,5.562c0.01,0.011,0.02,0.019,0.028,0.023c0.016-0.043,0.031-0.098,0.043-0.166
			l1.773-8.515c0.03-0.177-0.045-0.355-0.121-0.446C22.979,35.75,22.943,35.731,22.929,35.731z"/>
	</g>
	<g>
		<path fill="#373A4A" d="M32.482,68.482C14.571,68.482,0,53.91,0,36C0,18.089,14.571,3.518,32.482,3.518
			c17.911,0,32.483,14.571,32.483,32.482C64.965,53.91,50.393,68.482,32.482,68.482z M32.482,7.518C16.777,7.518,4,20.295,4,36
			s12.777,28.482,28.482,28.482c15.706,0,28.483-12.777,28.483-28.482S48.188,7.518,32.482,7.518z"/>
	</g>
	<g>
		<path fill="#373A4A" d="M32.482,51.73c-0.553,0-1-0.447-1-1c0-0.556,0.447-1,1-1c7.571,0,13.731-6.16,13.731-13.73
			c0-7.571-6.16-13.73-13.731-13.73S18.752,28.429,18.752,36c0,0.552-0.447,1-1,1s-1-0.447-1-1c0-8.674,7.057-15.73,15.73-15.73
			c8.672,0,15.731,7.057,15.731,15.73C48.213,44.674,41.156,51.73,32.482,51.73z"/>
	</g>
	<g>
		<path fill="#FEB843" d="M56.631,37c-0.553,0-1-0.447-1-1c0-10.407-7.004-19.59-17.029-22.331
			c-0.533-0.146-0.848-0.695-0.701-1.229c0.146-0.533,0.701-0.843,1.229-0.701C50.021,14.718,57.631,24.694,57.631,36
			C57.631,36.553,57.184,37,56.631,37z"/>
	</g>
	<g>
		<path fill="#FEB843" d="M33.832,12.888c-0.02,0-0.037,0-0.057-0.002c-0.43-0.023-0.86-0.035-1.293-0.035c-0.553,0-1-0.447-1-1
			c0-0.553,0.447-1,1-1c0.47,0,0.938,0.014,1.402,0.039c0.552,0.029,0.974,0.501,0.943,1.053
			C34.798,12.475,34.358,12.888,33.832,12.888z"/>
	</g>
</g>
</svg>
