<?xml version="1.0" encoding="utf-8"?>
<!-- Generator: Adobe Illustrator 16.0.3, SVG Export Plug-In . SVG Version: 6.00 Build 0)  -->
<!DOCTYPE svg PUBLIC "-//W3C//DTD SVG 1.1//EN" "http://www.w3.org/Graphics/SVG/1.1/DTD/svg11.dtd">
<svg version="1.1" id="Layer_1" xmlns="http://www.w3.org/2000/svg" xmlns:xlink="http://www.w3.org/1999/xlink" x="0px" y="0px"
	 width="72px" height="72px" viewBox="0 0 72 72" enable-background="new 0 0 72 72" xml:space="preserve">
<g>
	<g>
		<path fill="#373A4A" d="M40.17,68.984c-17.55,0-31.829-14.279-31.829-31.826c0-17.55,14.279-31.826,31.829-31.826
			C57.721,5.332,72,19.61,72,37.159C72,54.705,57.721,68.984,40.17,68.984z M40.17,9.535c-15.233,0-27.626,12.392-27.626,27.624
			c0,15.231,12.393,27.623,27.626,27.623c15.234,0,27.626-12.392,27.626-27.623C67.796,21.927,55.403,9.535,40.17,9.535z"/>
	</g>
	<g>
		<path fill="#373A4A" d="M28.861,58.198c-0.175,0-0.354-0.043-0.516-0.138c-7.518-4.265-12.188-12.274-12.188-20.902
			c0-0.583,0.469-1.051,1.05-1.051c0.582,0,1.051,0.468,1.051,1.051c0,7.873,4.262,15.183,11.122,19.074
			c0.504,0.284,0.682,0.928,0.396,1.429C29.583,58.006,29.229,58.198,28.861,58.198z"/>
	</g>
	<g>
		<path fill="#373A4A" d="M34.851,61.178c-0.087,0-0.175-0.012-0.263-0.03c-0.449-0.115-0.888-0.242-1.326-0.382
			c-0.552-0.176-0.857-0.765-0.682-1.319c0.176-0.551,0.764-0.857,1.321-0.682c0.4,0.13,0.802,0.242,1.211,0.351
			c0.562,0.144,0.899,0.724,0.754,1.279C35.745,60.865,35.317,61.178,34.851,61.178z"/>
	</g>
	<g>
		<path fill="#4EB96E" d="M68.771,16.977c-0.538,0-1.072-0.204-1.484-0.614L61.83,10.92c-0.816-0.819-0.818-2.15-0.004-2.971
			c0.819-0.822,2.154-0.826,2.972-0.005l5.457,5.443c0.821,0.819,0.823,2.15,0.004,2.972C69.849,16.769,69.309,16.977,68.771,16.977
			z"/>
	</g>
	<g>
		<path fill="#373A4A" d="M46.258,45.521c-0.518,0-1.037-0.19-1.443-0.574l-6.15-5.747c-0.42-0.396-0.723-0.948-0.723-1.527V19.964
			c0-1.16,0.942-2.102,2.103-2.102c1.161,0,2.102,0.941,2.102,2.102v16.803l5.49,5.124c0.849,0.797,0.916,2.125,0.116,2.97
			C47.341,45.302,46.815,45.521,46.258,45.521z"/>
	</g>
	<g>
		<path fill="#373A4A" d="M40.045,8.406c-1.16,0-2.102-0.941-2.102-2.102V2.102c0-1.16,0.941-2.102,2.102-2.102
			s2.102,0.941,2.102,2.102v4.203C42.146,7.466,41.205,8.406,40.045,8.406z"/>
	</g>
</g>
<circle fill="none" stroke="#F62459" stroke-width="2" stroke-linecap="round" stroke-linejoin="round" stroke-miterlimit="10" cx="251.406" cy="0" r="29"/>
<polyline fill="none" stroke="#F62459" stroke-width="2" stroke-linecap="round" stroke-linejoin="round" stroke-miterlimit="10" points="
	251.406,-21.673 251.406,0 263.324,11.917 "/>
</svg>
