<?xml version="1.0" encoding="utf-8"?>
<!-- Generator: Adobe Illustrator 16.0.3, SVG Export Plug-In . SVG Version: 6.00 Build 0)  -->
<!DOCTYPE svg PUBLIC "-//W3C//DTD SVG 1.1//EN" "http://www.w3.org/Graphics/SVG/1.1/DTD/svg11.dtd">
<svg version="1.1" id="Layer_1" xmlns="http://www.w3.org/2000/svg" xmlns:xlink="http://www.w3.org/1999/xlink" x="0px" y="0px"
	 width="72px" height="72px" viewBox="0 0 72 72" enable-background="new 0 0 72 72" xml:space="preserve">
<g>
	<g>
		<path fill="#3A4051" d="M39.92,68.081c-17.694,0-32.09-14.392-32.09-32.08c0-8.57,3.34-16.631,9.405-22.697
			C23.312,7.251,31.368,3.92,39.92,3.92c6.455,0,12.683,1.913,18.011,5.533C66.741,15.438,72,25.362,72,36
			c0,0.791-0.026,1.506-0.084,2.188C70.812,54.934,56.758,68.081,39.92,68.081z M39.92,7.92c-7.487,0-14.54,2.917-19.86,8.215
			C14.754,21.442,11.83,28.499,11.83,36c0,15.482,12.602,28.08,28.09,28.08c14.738,0,27.039-11.504,28.009-26.191
			C67.979,37.285,68,36.678,68,36c0-9.313-4.604-18-12.317-23.239C51.019,9.594,45.569,7.92,39.92,7.92z"/>
	</g>
	<g>
		<g>
			<path fill="#FEB843" d="M15.926,38.859c-0.516,0-0.953-0.396-0.996-0.918c-0.053-0.646-0.079-1.297-0.079-1.94
				c0-0.553,0.447-1,1-1c0.552,0,1,0.447,1,1c0,0.59,0.024,1.188,0.072,1.776c0.046,0.552-0.364,1.033-0.915,1.078
				C15.981,38.857,15.954,38.859,15.926,38.859z"/>
		</g>
		<g>
			<path fill="#FEB843" d="M24.88,54.928c-0.207,0-0.416-0.062-0.595-0.197c-3.962-2.938-6.844-6.963-8.335-11.635
				c-0.168-0.525,0.123-1.09,0.648-1.258c0.527-0.168,1.089,0.123,1.257,0.65c1.363,4.271,3.998,7.949,7.621,10.637
				c0.443,0.33,0.536,0.955,0.207,1.398C25.488,54.79,25.186,54.928,24.88,54.928z"/>
		</g>
	</g>
	<g>
		<path fill="#3A4051" d="M39.92,37c-0.264,0-0.521-0.105-0.707-0.293L18.109,15.602c-0.391-0.391-0.391-1.023,0-1.414
			c0.391-0.39,1.023-0.39,1.414,0l20.376,20.377L59.858,13.46c0.382-0.401,1.015-0.418,1.414-0.039
			c0.399,0.38,0.42,1.013,0.039,1.414L40.646,36.688c-0.188,0.195-0.44,0.312-0.711,0.313C39.931,37,39.927,37,39.92,37z"/>
	</g>
	<g>
		<path fill="#3A4051" d="M39.92,37c-0.539,0-0.981-0.43-0.998-0.973c-0.019-0.551,0.418-1.012,0.972-1.027l28.969-0.834
			c0.541-0.004,1.012,0.42,1.027,0.973c0.018,0.551-0.418,1.012-0.975,1.027L39.949,37C39.938,37,39.931,37,39.92,37z"/>
	</g>
</g>
</svg>
