<?xml version="1.0" encoding="utf-8"?>
<!-- Generator: Adobe Illustrator 16.0.3, SVG Export Plug-In . SVG Version: 6.00 Build 0)  -->
<!DOCTYPE svg PUBLIC "-//W3C//DTD SVG 1.1//EN" "http://www.w3.org/Graphics/SVG/1.1/DTD/svg11.dtd">
<svg version="1.1" id="Layer_1" xmlns="http://www.w3.org/2000/svg" xmlns:xlink="http://www.w3.org/1999/xlink" x="0px" y="0px"
	 width="72px" height="72px" viewBox="0 0 72 72" enable-background="new 0 0 72 72" xml:space="preserve">
<g>
	<g>
		<path fill="#373A4A" d="M32.27,68.27C14.476,68.27,0,53.793,0,36S14.476,3.731,32.27,3.731c17.792,0,32.269,14.476,32.269,32.269
			S50.062,68.27,32.27,68.27z M32.27,7.731C16.682,7.731,4,20.413,4,36c0,15.588,12.682,28.27,28.27,28.27
			c15.587,0,28.269-12.682,28.269-28.27C60.539,20.413,47.857,7.731,32.27,7.731z"/>
	</g>
	<g>
		<path fill="#373A4A" d="M32.27,43.52c-4.146,0-7.52-3.373-7.52-7.521c0-4.147,3.373-7.52,7.52-7.52
			c4.146,0,7.519,3.373,7.519,7.52C39.789,40.146,36.417,43.52,32.27,43.52z M32.27,32.48c-1.941,0-3.52,1.579-3.52,3.52
			c0,1.941,1.578,3.52,3.52,3.52c1.939,0,3.52-1.578,3.52-3.52C35.79,34.059,34.209,32.48,32.27,32.48z"/>
	</g>
	<g>
		<path fill="#373A4A" d="M8.915,38.291c-0.531,0-0.973-0.512-0.998-1.047c-0.018-0.381-0.026-0.812-0.026-1.197
			c0-0.553,0.447-1.023,1-1.023c0.552,0,1,0.436,1,0.988c0,0.354,0.008,0.794,0.024,1.145c0.025,0.553-0.4,1.135-0.952,1.135
			C8.946,38.291,8.93,38.291,8.915,38.291z"/>
	</g>
	<g>
		<path fill="#373A4A" d="M20.755,57.354c-0.167,0-0.336-0.041-0.492-0.129c-6.396-3.629-10.776-9.848-12.02-17.062
			c-0.094-0.545,0.271-1.062,0.815-1.155c0.55-0.095,1.062,0.271,1.155,0.815c1.141,6.622,5.163,12.329,11.035,15.661
			c0.48,0.271,0.649,0.883,0.377,1.363C21.442,57.172,21.104,57.354,20.755,57.354z"/>
	</g>
	<g>
		<path fill="#4EB96E" d="M19.32,49.173c-0.259,0-0.518-0.1-0.713-0.299c-2.968-3.021-4.602-7.013-4.602-11.246c0-0.553,0.447-1,1-1
			c0.552,0,1,0.447,1,1c0,3.705,1.431,7.201,4.028,9.845c0.387,0.395,0.381,1.026-0.013,1.413
			C19.827,49.078,19.573,49.173,19.32,49.173z"/>
	</g>
	<g>
		<path fill="#373A4A" d="M22.64,51.727c-0.167,0-0.337-0.043-0.492-0.131c-0.323-0.184-0.64-0.377-0.949-0.584
			c-0.459-0.305-0.584-0.926-0.278-1.386c0.307-0.461,0.926-0.588,1.387-0.278c0.27,0.18,0.546,0.348,0.828,0.51
			c0.48,0.271,0.648,0.884,0.376,1.363C23.327,51.545,22.989,51.727,22.64,51.727z"/>
	</g>
	<g>
		<path fill="#373A4A" d="M23.989,45.893c-0.167,0-0.337-0.041-0.492-0.129c-2.522-1.432-4.089-4.119-4.089-7.016
			c0-0.553,0.447-1,1-1c0.552,0,1,0.447,1,1c0,2.178,1.178,4.199,3.075,5.273c0.48,0.272,0.648,0.883,0.376,1.363
			C24.675,45.711,24.336,45.893,23.989,45.893z"/>
	</g>
	<g>
		<path fill="#373A4A" d="M55.09,38.68c-0.039,0-0.078-0.003-0.117-0.008c-0.551-0.064-0.941-0.562-0.877-1.109
			c0.941-8.001-2.5-15.929-8.982-20.688c-0.445-0.326-0.541-0.952-0.215-1.397c0.326-0.444,0.953-0.541,1.396-0.214
			c7.062,5.185,10.812,13.819,9.785,22.534C56.021,38.305,55.59,38.68,55.09,38.68z"/>
	</g>
	<g>
		<path fill="#373A4A" d="M49.438,36.869c-0.039,0-0.078-0.002-0.119-0.008c-0.549-0.063-0.939-0.562-0.875-1.109
			c0.592-5.021-1.568-9.997-5.637-12.984c-0.445-0.326-0.541-0.952-0.217-1.397c0.326-0.444,0.953-0.541,1.398-0.214
			c4.648,3.412,7.115,9.095,6.439,14.83C50.369,36.495,49.938,36.869,49.438,36.869z"/>
	</g>
	<g>
		<path fill="#4EB96E" d="M43.938,34.502c-0.039,0-0.078-0.002-0.117-0.007c-0.549-0.064-0.941-0.562-0.877-1.11
			c0.256-2.166-0.676-4.312-2.432-5.601c-0.445-0.326-0.541-0.952-0.215-1.397c0.326-0.444,0.953-0.54,1.398-0.214
			c2.334,1.714,3.572,4.566,3.234,7.446C44.869,34.128,44.438,34.502,43.938,34.502z"/>
	</g>
</g>
</svg>
