<?xml version="1.0" encoding="utf-8"?>
<!-- Generator: Adobe Illustrator 16.0.3, SVG Export Plug-In . SVG Version: 6.00 Build 0)  -->
<!DOCTYPE svg PUBLIC "-//W3C//DTD SVG 1.1//EN" "http://www.w3.org/Graphics/SVG/1.1/DTD/svg11.dtd">
<svg version="1.1" id="Layer_1" xmlns="http://www.w3.org/2000/svg" xmlns:xlink="http://www.w3.org/1999/xlink" x="0px" y="0px"
	 width="72px" height="72px" viewBox="0 0 72 72" enable-background="new 0 0 72 72" xml:space="preserve">
<g>
	<g>
		<path fill="#373A4A" d="M41,63.291H16c-8.822,0-16-7.234-16-16.125c0-5.543,2.925-10.793,7.541-13.696
			c0.422-4.595,4.018-8.286,8.57-8.854c4.41-9.706,13.978-15.907,24.723-15.907C55.812,8.709,68,20.896,68,35.875
			c0,14.664-11.725,26.781-26.248,27.27C41.455,63.264,41.184,63.291,41,63.291z M17.251,28.54
			c-3.134,0.002-5.751,2.619-5.751,5.836l0.013,0.2c0.025,0.767-0.391,1.48-1.07,1.837C6.528,38.463,4,42.686,4,47.166
			c0,6.686,5.383,12.125,12,12.125h24.45c0.284-0.107,0.541-0.133,0.718-0.133C53.746,58.994,64,48.549,64,35.875
			c0-12.773-10.393-23.166-23.166-23.166c-9.532,0-17.978,5.724-21.516,14.581c-0.304,0.761-1.041,1.258-1.857,1.258
			C17.412,28.549,17.301,28.542,17.251,28.54z"/>
	</g>
	<g>
		<path fill="#F62459" d="M58.834,35.291c-0.552,0-0.999-0.504-1-1.057c-0.001-0.525-0.027-1.078-0.082-1.588
			c-0.059-0.549,0.34-1.056,0.891-1.113c0.541-0.063,1.041,0.334,1.099,0.883c0.062,0.576,0.093,1.225,0.094,1.818
			c0.001,0.553-0.446,1.057-0.998,1.057C58.836,35.291,58.835,35.291,58.834,35.291z"/>
	</g>
	<g>
		<path fill="#F62459" d="M56.907,27.631c-0.354,0-0.695-0.188-0.878-0.519c-2.586-4.713-7.527-7.64-12.896-7.64
			c-0.553,0-1-0.447-1-1c0-0.553,0.447-1,1-1c6.1,0,11.713,3.325,14.65,8.677c0.266,0.484,0.088,1.093-0.396,1.358
			C57.234,27.591,57.068,27.631,56.907,27.631z"/>
	</g>
	<g>
		<g>
			<path fill="#373A4A" d="M35.354,53.172L35.354,53.172c-1.315,0-2.587-0.66-3.491-1.811l-7.586-9.805
				c-0.963-1.228-1.218-2.554-0.693-3.632c0.505-1.039,1.64-1.635,3.122-1.635h0.005h3.659v-3.175c0-3.287,2.233-5.862,5.321-5.862
				c2.346,0,4.164,1.31,5.021,3.504c0.201,0.515-0.1,1.095-0.611,1.296c-0.518,0.201-1.119-0.053-1.32-0.567
				c-0.563-1.439-1.545-2.232-3.079-2.232c-1.966,0-3.332,1.696-3.332,3.862v4.175c0,0.553-0.817,1-1.37,1h-4.289
				c-0.677,0-1.173,0.189-1.328,0.51c-0.172,0.352,0.01,0.936,0.472,1.525l7.587,9.805c0.524,0.67,1.205,1.041,1.914,1.041l0,0
				c0.674,0,1.316-0.346,1.812-0.977l7.575-9.894c0.466-0.596,0.647-1.17,0.481-1.512c-0.151-0.313-0.649-0.5-1.332-0.5H40
				c-0.553,0-1-0.447-1-1c0-0.554,0.447-1,1-1h3.893c1.486,0,2.629,0.592,3.131,1.625c0.52,1.065,0.265,2.383-0.699,3.61
				l-7.576,9.896C37.857,52.555,36.654,53.172,35.354,53.172z"/>
		</g>
		<g>
			<path fill="#373A4A" d="M39.6,35.39c-0.26,0-0.52-0.109-0.709-0.29c-0.181-0.189-0.291-0.45-0.291-0.71
				c0-0.26,0.11-0.52,0.291-0.71c0.369-0.37,1.039-0.37,1.42,0c0.189,0.19,0.289,0.45,0.289,0.71c0,0.26-0.1,0.521-0.289,0.71
				C40.12,35.281,39.859,35.39,39.6,35.39z"/>
		</g>
	</g>
</g>
</svg>
