<?xml version="1.0" encoding="utf-8"?>
<!-- Generator: Adobe Illustrator 16.0.3, SVG Export Plug-In . SVG Version: 6.00 Build 0)  -->
<!DOCTYPE svg PUBLIC "-//W3C//DTD SVG 1.1//EN" "http://www.w3.org/Graphics/SVG/1.1/DTD/svg11.dtd">
<svg version="1.1" id="Layer_1" xmlns="http://www.w3.org/2000/svg" xmlns:xlink="http://www.w3.org/1999/xlink" x="0px" y="0px"
	 width="72px" height="72px" viewBox="0 0 72 72" enable-background="new 0 0 72 72" xml:space="preserve">
<g>
	<g>
		<path fill="#373A4A" d="M51.619,69.5h-29c-7.134,0-11.119-1.57-11.119-9.85V35.5c0-1.104,1.015-2,2.119-2h45
			c1.104,0,1.881,0.896,1.881,2v24.15C60.5,66.799,59.843,69.5,51.619,69.5z M15.5,37.5v22.15c0,5.084,1.035,5.85,7.119,5.85h29
			c5,0,4.881,0,4.881-5.85V37.5H15.5z"/>
	</g>
	<g>
		<g>
			<path fill="#4EB96E" d="M20.5,53.5c-0.553,0-1-0.447-1-1v-11c0-0.553,0.566-1,1.119-1h5c0.552,0,1,0.447,1,1s-0.448,1-1,1H21.5
				v10C21.5,53.053,21.052,53.5,20.5,53.5z"/>
		</g>
		<g>
			<path fill="#4EB96E" d="M20.5,58.5c-0.553,0-1-0.447-1-1v-1c0-0.553,0.447-1,1-1c0.552,0,1,0.447,1,1v1
				C21.5,58.053,21.052,58.5,20.5,58.5z"/>
		</g>
	</g>
	<g>
		<path fill="#373A4A" d="M51.5,36.5c-1.104,0-2-0.896-2-2V19.821c0-7.22-5.643-13.321-12.463-13.321h-0.123
			C29.831,6.5,23.5,12.725,23.5,19.821V34.5c0,1.104-0.896,2-2,2s-2-0.896-2-2V19.821C19.5,10.594,27.7,2.5,36.914,2.5h0.123
			c9.145,0,16.463,7.771,16.463,17.321V34.5C53.5,35.604,52.604,36.5,51.5,36.5z"/>
	</g>
</g>
</svg>
